<svg id="Layer_1" data-name="Layer 1" xmlns="http://www.w3.org/2000/svg" width="140" height="41.89" viewBox="0 0 140 41.89"><defs><style>.cls-1{fill:#2f1c82;}.cls-2{fill:#ff9600;}</style></defs><title>urajnet_color_logo</title><path class="cls-1" d="M21,26.07c0,2.2,0,4.67,0,6.74H14.76c-.09-.63-.13-1.89-.18-2.7-1.39,2.34-3.42,3.24-6.43,3.24-4.72,0-7.73-2.88-7.73-8.63V9.53H6.85V23.42c0,2.56.81,4.67,3.6,4.67s4.13-1.57,4.13-6.16V15.27a5.74,5.74,0,0,1,5.74-5.74H21Z"/><path class="cls-1" d="M25.64,15.87c0-2.34,0-4.36,0-6.34h6.34c.09.54.18,2.83.18,4.09C33.14,11,35.61,9,39.57,9v6.16c-4.67-.13-7.46,1.12-7.46,7.51v4.5a5.66,5.66,0,0,1-5.66,5.66h-.81Z"/><path class="cls-1" d="M48.53,9.53a5.7,5.7,0,0,0-5.7,5.7V33.62c0,2.52-.59,3.32-2.65,3.32a2.54,2.54,0,0,1-.59,0v5.17c.54,0,1.39.09,2,.09,6.38,0,7.73-3.19,7.73-9.84V9.53Z"/><path class="cls-1" d="M74.19,26.79a51.73,51.73,0,0,0,.31,6H70.36A2.31,2.31,0,0,1,68,30.54v0c-.85,1.3-2.43,2.83-6.56,2.83-5.62,0-8-3.69-8-7.28,0-5.3,4.22-7.77,11.06-7.77H67.9V16.9c0-1.66-.58-3.28-3.6-3.28-2.7,0-3.33,1.12-3.6,2.83H54.6c.31-4.13,2.88-7.46,10-7.46,6.2,0,9.62,2.47,9.62,8ZM67.9,22.21H65.29c-3.91,0-5.35,1.21-5.35,3.46,0,1.66,1,3.1,3.37,3.1,4.09,0,4.58-2.88,4.58-5.93Zm0,.63v-.63"/><path class="cls-1" d="M78.47,15.42V9.53h6.2c.14.63.22,2.25.27,3C85.71,11.06,87.6,9,91.69,9c4.67,0,7.69,3.19,7.69,9V32.81h-.8a5.63,5.63,0,0,1-5.63-5.63V18.75c0-2.65-.85-4.54-3.73-4.54s-4.27,1.53-4.27,5.66V32.81H78.47Zm0,17.39V15.42m6.47-2.92C85.71,11.06,87.6,9,91.69,9m-13.21.54h6.2m-6.2,5.89V9.53"/><path class="cls-1" d="M108.9,22.57c0,2.92,1.48,5.75,4.67,5.75,2.7,0,3.46-1.08,4.09-2.47h6.43c-.81,2.83-3.37,7.51-10.65,7.51-7.69,0-11-5.71-11-11.82,0-7.33,3.73-12.54,11.24-12.54,8,0,10.7,5.8,10.7,11.6a13.6,13.6,0,0,1-.09,2Zm9-4c0-2.7-1.12-5-4.27-5s-4.31,2.11-4.58,5Z"/><path class="cls-1" d="M135.85,14.39V25.89c0,1.75.54,2.43,2.47,2.43.36,0,1,0,1.44,0v4.4a14,14,0,0,1-4.32.45c-4.54,0-6-2.43-6-6.52V14.39h-3.59V9.53h3.59V3.24h.73a5.7,5.7,0,0,1,5.7,5.7v.59h4.58v4.85Z"/><path class="cls-2" d="M55,.27h3.56a0,0,0,0,1,0,0V3.94A5.59,5.59,0,0,1,53,9.53H49.3a0,0,0,0,1,0,0V6A5.7,5.7,0,0,1,55,.27Z"/></svg>