<svg id="Layer_1" data-name="Layer 1" xmlns="http://www.w3.org/2000/svg" viewBox="0 0 900 196.74"><defs><style>.cls-1{fill:#004137;}</style></defs><path class="cls-1" d="M271.06,75.54a.92.92,0,0,1-1.1.89,56.69,56.69,0,0,0-10.77-.87c-20.51,0-37,16.2-37,41v76.26a.92.92,0,0,1-.92.92H198.84a.92.92,0,0,1-.91-.92V53.54a.92.92,0,0,1,.91-.92h22.45a.92.92,0,0,1,.92.92V72.72a.91.91,0,0,0,1.71.44c6.83-12.54,19.86-21.61,37.43-21.61,3.37,0,6.54.21,8.9.45a.91.91,0,0,1,.81.92Z"/><path class="cls-1" d="M346.35,175.42c19,0,30.56-11.91,34.83-28.88a.91.91,0,0,1,1.26-.62l19.85,9.19a.93.93,0,0,1,.5,1.12c-7,23.09-27.35,40.51-56.44,40.51-39.4,0-66.66-30-66.66-73.41,0-43.72,27.26-73.4,66.66-73.4,29.1,0,49,16.63,55.91,39.72a.94.94,0,0,1-.48,1.11l-19.33,9.67a.92.92,0,0,1-1.29-.6C376.89,83.12,365.37,71,346.35,71,321.25,71,304,91,304,123.33,304,155.45,321.25,175.42,346.35,175.42Z"/><path class="cls-1" d="M417.59,155.72c0-28.07,21.86-39.67,53.43-46.15l33.54-6.87a.92.92,0,0,0,.74-.9V96.61c0-16.19-8.91-25.36-27.8-25.36-17.48,0-27.95,8.06-32.41,23.16a.91.91,0,0,1-1.09.64l-21.15-5.48a.94.94,0,0,1-.66-1.18c7-22.45,27.64-38.46,56.12-38.46,31.58,0,51,15.38,51,45.61v68.81c0,8.81,5.22,11.9,14,10.22a.92.92,0,0,1,1.11.89v17.48a1,1,0,0,1-.84.93c-20.14,2.35-32.11-2.26-35.69-14.3a.9.9,0,0,0-1.56-.36c-8.83,10.3-24,17-42.33,17C438.37,196.2,417.59,181.08,417.59,155.72Zm87.71-34.28-27.53,5.94c-21.59,4.32-36.16,10.26-36.16,27.26,0,13.76,10,21.86,25.37,21.86,20.78,0,38.32-12.69,38.32-30.77Z"/><path class="cls-1" d="M558.18,123.33c0-40.21,22.4-73.4,61.53-73.4,18.47,0,33.38,8.3,42.07,20.67a.91.91,0,0,0,1.65-.55V.92a.92.92,0,0,1,.92-.92H686.8a.92.92,0,0,1,.92.92V192.85a.92.92,0,0,1-.92.92H664.35a.92.92,0,0,1-.92-.92V176.39a.91.91,0,0,0-1.65-.55c-8.69,12.6-23.6,20.9-42.07,20.9C580.58,196.74,558.18,163.27,558.18,123.33ZM624,71.25c-26.44,0-41.29,21.59-41.29,52.08,0,30.23,14.85,52.09,41.29,52.09,20,0,39.94-14.58,39.94-47v-10C664,85.55,644,71.25,624,71.25Z"/><rect class="cls-1" x="722.16" y="56.29" width="24.29" height="137.47" rx="0.92"/><path class="cls-1" d="M773.16,155.72c0-28.07,21.86-39.67,53.43-46.15l33.54-6.87a.92.92,0,0,0,.74-.9V96.61c0-16.19-8.91-25.36-27.8-25.36-17.48,0-28,8.06-32.41,23.16a.91.91,0,0,1-1.09.64l-21.15-5.48a.94.94,0,0,1-.66-1.18c7-22.45,27.64-38.46,56.12-38.46,31.58,0,51,15.38,51,45.61v68.81c0,8.81,5.22,11.9,14,10.22a.92.92,0,0,1,1.11.89v17.48a1,1,0,0,1-.84.93c-20.14,2.35-32.11-2.26-35.69-14.3a.9.9,0,0,0-1.56-.36c-8.83,10.3-24,17-42.33,17C793.94,196.2,773.16,181.08,773.16,155.72Zm87.71-34.28-27.53,5.94c-21.59,4.32-36.16,10.26-36.16,27.26,0,13.76,10,21.86,25.37,21.86,20.78,0,38.32-12.69,38.32-30.77Z"/><path class="cls-1" d="M750.36,29.52a12.36,12.36,0,0,1-3.61-8.72h0V15.61h0a12.36,12.36,0,0,1,3.61-8.72l1.51-1.51a1.46,1.46,0,0,0,0-2.08L749.21.64a1.46,1.46,0,0,0-2.08,0l-1.51,1.51a12.36,12.36,0,0,1-8.72,3.61h-5.19A12.34,12.34,0,0,1,723,2.15L721.48.64a1.46,1.46,0,0,0-2.08,0L716.73,3.3a1.48,1.48,0,0,0,0,2.08l1.52,1.51a12.36,12.36,0,0,1,3.61,8.72h0V20.8h0a12.36,12.36,0,0,1-3.61,8.72L716.73,31a1.48,1.48,0,0,0,0,2.08l2.67,2.67a1.48,1.48,0,0,0,2.08,0L723,34.26a12.34,12.34,0,0,1,8.72-3.61h5.19a12.31,12.31,0,0,1,8.71,3.61l1.52,1.52a1.48,1.48,0,0,0,2.08,0l2.66-2.67a1.46,1.46,0,0,0,0-2.08Z"/><path class="cls-1" d="M102.31,0H75a.9.9,0,0,0-.85.59L.06,192.52a.92.92,0,0,0,.86,1.25H24.85a.92.92,0,0,0,.86-.59l19.21-50.42,8.63-22.67,33.69-88.7a.92.92,0,0,1,1.72,0l34.22,88.7,8.64,22.67,19.47,50.42a.92.92,0,0,0,.86.59h24.2a.92.92,0,0,0,.86-1.25L103.17.59A.92.92,0,0,0,102.31,0Z"/><path class="cls-1" d="M104.69,140.16a12.31,12.31,0,0,1-3.61-8.71h0v-5.19h0a12.34,12.34,0,0,1,3.61-8.72l1.52-1.51a1.48,1.48,0,0,0,0-2.08l-2.67-2.67a1.48,1.48,0,0,0-2.08,0L100,112.8a12.34,12.34,0,0,1-8.72,3.61H86a12.31,12.31,0,0,1-8.71-3.61l-1.52-1.52a1.48,1.48,0,0,0-2.08,0L71.07,114a1.46,1.46,0,0,0,0,2.08l1.51,1.51a12.34,12.34,0,0,1,3.61,8.72h0v5.19h0a12.31,12.31,0,0,1-3.61,8.71l-1.51,1.52a1.46,1.46,0,0,0,0,2.08l2.66,2.66a1.46,1.46,0,0,0,2.08,0l1.52-1.51A12.31,12.31,0,0,1,86,141.3h5.19a12.34,12.34,0,0,1,8.72,3.61l1.51,1.51a1.46,1.46,0,0,0,2.08,0l2.67-2.66a1.48,1.48,0,0,0,0-2.08Z"/></svg>